<?xml version="1.0" standalone="no"?>
<!DOCTYPE svg PUBLIC "-//W3C//DTD SVG 20010904//EN"
 "http://www.w3.org/TR/2001/REC-SVG-20010904/DTD/svg10.dtd">
<svg version="1.0" xmlns="http://www.w3.org/2000/svg"
 width="200.000000pt" height="200.000000pt" viewBox="0 0 200.000000 200.000000"
 preserveAspectRatio="xMidYMid meet">
<metadata>
Created by potrace 1.14, written by Peter Selinger 2001-2017
</metadata>
<g transform="translate(0.000000,200.000000) scale(0.100000,-0.100000)"
fill="#000000" stroke="none">
<path d="M1241 1833 l-35 -57 0 -341 -1 -340 -45 -73 -45 -73 -115 7 c-63 3
-137 7 -165 9 -27 2 -112 7 -188 10 l-137 6 -70 -48 c-38 -26 -68 -52 -67 -57
2 -5 12 -14 22 -20 57 -32 56 -28 25 -78 l-29 -47 45 -103 c26 -59 60 -118 80
-138 28 -30 34 -43 34 -80 0 -25 4 -61 9 -80 6 -19 12 -48 14 -65 7 -42 16
-84 29 -127 10 -32 15 -38 40 -38 33 0 35 10 7 36 -17 15 -20 26 -15 64 3 25
8 86 11 136 4 50 8 100 10 110 2 10 4 26 4 35 1 14 8 15 44 9 23 -4 67 -11 97
-15 30 -3 66 -8 80 -10 14 -2 69 5 122 14 l97 17 6 -46 c9 -67 11 -84 25 -202
14 -119 33 -153 84 -146 l26 3 -23 25 c-13 14 -23 32 -21 40 2 8 5 26 8 40 7
32 48 232 49 245 1 5 25 26 52 46 45 33 56 49 104 155 30 66 72 155 94 199 37
78 38 82 32 155 -4 41 -9 84 -11 95 -2 11 -6 47 -9 80 -3 33 -7 74 -9 90 -2
17 -7 64 -11 105 -4 41 -9 87 -10 101 -4 25 -3 25 70 25 40 -1 76 2 79 5 3 3
1 21 -4 40 -7 24 -22 41 -52 60 -24 15 -90 56 -146 93 -57 36 -110 66 -118 66
-10 0 -12 5 -7 12 11 19 21 108 11 108 -5 0 -11 -7 -14 -15 -8 -19 -22 -19
-26 0 -2 10 -17 -8 -37 -42z"/>
</g>
</svg>
